<svg width="23" height="23" viewBox="0 0 23 23" fill="none" xmlns="http://www.w3.org/2000/svg">
<path fill-rule="evenodd" clip-rule="evenodd" d="M18.4634 5.13926C16.6852 3.41444 13.8405 3.33112 11.9605 4.89677C11.7814 5.04594 11.5619 5.11837 11.3437 5.11562C11.1256 5.11837 10.9061 5.04594 10.727 4.89677C8.84703 3.33112 6.00234 3.41444 4.22407 5.13926C2.45923 6.85107 2.37852 9.56406 3.97441 11.3669C3.99785 11.3934 4.01955 11.4208 4.0395 11.4491L11.3437 18.5338L18.648 11.4491C18.6679 11.4208 18.6896 11.3934 18.7131 11.3669C20.309 9.56407 20.2283 6.85107 18.4634 5.13926ZM20.2516 12.4772C22.3866 9.92143 22.227 6.15591 19.7798 3.78223C17.4812 1.55272 13.9323 1.2951 11.3437 3.00342C8.7552 1.2951 5.20631 1.55272 2.90772 3.78223C0.460505 6.15591 0.300866 9.92143 2.43593 12.4772C2.47928 12.5523 2.53317 12.6218 2.5966 12.6834L10.6856 20.5293C11.0523 20.8849 11.6352 20.8849 12.0019 20.5293L20.0909 12.6834C20.1543 12.6218 20.2082 12.5523 20.2516 12.4772Z" fill="#C80036"/>
<path fill-rule="evenodd" clip-rule="evenodd" d="M17.0156 8.50744C17.0156 7.46332 16.1692 6.6169 15.125 6.6169V4.72635C17.2133 4.72635 18.9062 6.4192 18.9062 8.50744H17.0156Z" fill="#C80036"/>
</svg>
