<svg width="31" height="29" viewBox="0 0 31 29" fill="none" xmlns="http://www.w3.org/2000/svg">
<path fill-rule="evenodd" clip-rule="evenodd" d="M16.5689 3.29615C16.0227 2.82804 15.2169 2.82804 14.6707 3.29615L7.37905 9.54615C7.05582 9.8232 6.86979 10.2277 6.86979 10.6534V23.8953C6.86979 24.7007 7.52271 25.3536 8.32812 25.3536H22.9115C23.7169 25.3536 24.3698 24.7007 24.3698 23.8953V10.6534C24.3698 10.2277 24.1838 9.8232 23.8605 9.54615L16.5689 3.29615ZM12.7726 1.08165C14.411 -0.322688 16.8286 -0.322687 18.467 1.08165L25.7587 7.33165C26.7284 8.16282 27.2865 9.37622 27.2865 10.6534V23.8953C27.2865 26.3115 25.3277 28.2703 22.9115 28.2703H8.32812C5.91188 28.2703 3.95312 26.3115 3.95312 23.8953V10.6534C3.95312 9.37622 4.51121 8.16282 5.48091 7.33165L12.7726 1.08165Z" fill="#134B70"/>
<path fill-rule="evenodd" clip-rule="evenodd" d="M16.5591 3.2595C16.0162 2.80239 15.2232 2.80239 14.6803 3.2595L2.7049 13.3441L0.826172 11.1131L12.8016 1.02851C14.4301 -0.342837 16.8093 -0.342839 18.4378 1.02851L30.4132 11.1131L28.5345 13.3441L16.5591 3.2595Z" fill="#134B70"/>
<path fill-rule="evenodd" clip-rule="evenodd" d="M14.8906 16.6036C14.0852 16.6036 13.4323 17.2565 13.4323 18.0619V23.8953H10.5156V18.0619C10.5156 15.6457 12.4744 13.6869 14.8906 13.6869H16.349C18.7652 13.6869 20.724 15.6457 20.724 18.0619V23.8953H17.8073V18.0619C17.8073 17.2565 17.1544 16.6036 16.349 16.6036H14.8906Z" fill="#134B70"/>
</svg>
