<svg width="21" height="26" viewBox="0 0 21 26" fill="none" xmlns="http://www.w3.org/2000/svg">
<path fill-rule="evenodd" clip-rule="evenodd" d="M4.04944 2.72229C3.09096 2.72229 2.31396 3.49928 2.31396 4.45776C2.31396 5.41624 3.09096 6.19323 4.04944 6.19323C5.00791 6.19323 5.78491 5.41624 5.78491 4.45776C5.78491 3.49928 5.00791 2.72229 4.04944 2.72229ZM0 4.45776C0 2.22132 1.813 0.408321 4.04944 0.408321C6.28588 0.408321 8.09888 2.22132 8.09888 4.45776C8.09888 6.6942 6.28588 8.5072 4.04944 8.5072C1.813 8.5072 0 6.6942 0 4.45776Z" fill="#134B70"/>
<path fill-rule="evenodd" clip-rule="evenodd" d="M4.04944 11.3997C3.09096 11.3997 2.31396 12.1767 2.31396 13.1351C2.31396 14.0936 3.09096 14.8706 4.04944 14.8706C5.00791 14.8706 5.78491 14.0936 5.78491 13.1351C5.78491 12.1767 5.00791 11.3997 4.04944 11.3997ZM0 13.1351C0 10.8987 1.813 9.08569 4.04944 9.08569C6.28588 9.08569 8.09888 10.8987 8.09888 13.1351C8.09888 15.3716 6.28588 17.1846 4.04944 17.1846C1.813 17.1846 0 15.3716 0 13.1351Z" fill="#134B70"/>
<path fill-rule="evenodd" clip-rule="evenodd" d="M4.04944 20.077C3.09096 20.077 2.31396 20.854 2.31396 21.8125C2.31396 22.771 3.09096 23.548 4.04944 23.548C5.00791 23.548 5.78491 22.771 5.78491 21.8125C5.78491 20.854 5.00791 20.077 4.04944 20.077ZM0 21.8125C0 19.576 1.813 17.7631 4.04944 17.7631C6.28588 17.7631 8.09888 19.576 8.09888 21.8125C8.09888 24.0489 6.28588 25.8619 4.04944 25.8619C1.813 25.8619 0 24.0489 0 21.8125Z" fill="#134B70"/>
<path fill-rule="evenodd" clip-rule="evenodd" d="M20.8259 5.61474H10.4131V3.30077H20.8259V5.61474Z" fill="#134B70"/>
<path fill-rule="evenodd" clip-rule="evenodd" d="M20.8259 14.2921H10.4131V11.9781H20.8259V14.2921Z" fill="#134B70"/>
<path fill-rule="evenodd" clip-rule="evenodd" d="M20.8259 22.9695H10.4131V20.6555H20.8259V22.9695Z" fill="#134B70"/>
</svg>
