<svg width="20" height="22" viewBox="0 0 20 22" fill="none" xmlns="http://www.w3.org/2000/svg">
<path fill-rule="evenodd" clip-rule="evenodd" d="M6.15548 3.75994C5.21696 4.66348 4.58366 6.03658 4.58366 7.92101C4.58366 9.08582 5.22187 10.6039 6.22411 12.2089C7.20111 13.7735 8.41888 15.2578 9.35731 16.3151C9.71014 16.7127 10.2905 16.7127 10.6433 16.3151C11.5818 15.2578 12.7995 13.7735 13.7765 12.2089C14.7788 10.6039 15.417 9.08582 15.417 7.92101C15.417 6.03658 14.7837 4.66348 13.8452 3.75994C12.8983 2.84833 11.5557 2.33329 10.0003 2.33329C8.44492 2.33329 7.10238 2.84833 6.15548 3.75994ZM4.65278 2.19906C6.05842 0.845804 7.96588 0.166626 10.0003 0.166626C12.0348 0.166626 13.9422 0.845804 15.3479 2.19906C16.7619 3.56038 17.5837 5.52282 17.5837 7.92101C17.5837 9.72843 16.6565 11.6876 15.6143 13.3565C14.5469 15.0658 13.2413 16.652 12.2638 17.7534C11.049 19.1222 8.95167 19.1222 7.73683 17.7534C6.75934 16.652 5.45373 15.0658 4.38633 13.3565C3.34419 11.6876 2.41699 9.72843 2.41699 7.92101C2.41699 5.52282 3.23876 3.56038 4.65278 2.19906Z" fill="white"/>
<path fill-rule="evenodd" clip-rule="evenodd" d="M10 5.58329C9.40169 5.58329 8.91667 6.06832 8.91667 6.66663C8.91667 7.26493 9.40169 7.74996 10 7.74996C10.5983 7.74996 11.0833 7.26493 11.0833 6.66663C11.0833 6.06832 10.5983 5.58329 10 5.58329ZM6.75 6.66663C6.75 4.8717 8.20507 3.41663 10 3.41663C11.7949 3.41663 13.25 4.8717 13.25 6.66663C13.25 8.46155 11.7949 9.91663 10 9.91663C8.20507 9.91663 6.75 8.46155 6.75 6.66663Z" fill="white"/>
<path fill-rule="evenodd" clip-rule="evenodd" d="M6.68175 14.4468H7.29167V16.6134H6.8191C5.32282 16.8075 4.10974 17.1275 3.29932 17.4963C2.88553 17.6846 2.63113 17.8613 2.49561 17.9956C2.47789 18.0132 2.46351 18.0286 2.45188 18.042C2.48775 18.0836 2.55054 18.145 2.65816 18.2245C2.96146 18.4486 3.46959 18.696 4.19487 18.9226C5.63254 19.3719 7.68517 19.6666 10 19.6666C12.3148 19.6666 14.3675 19.3719 15.8051 18.9226C16.5304 18.696 17.0385 18.4486 17.3418 18.2245C17.4495 18.145 17.5123 18.0836 17.5481 18.042C17.5365 18.0286 17.5221 18.0132 17.5044 17.9956C17.3689 17.8613 17.1145 17.6846 16.7007 17.4963C15.8903 17.1275 14.6772 16.8075 13.1809 16.6134H12.7083V14.4468H13.3182L13.386 14.4553C15.0351 14.664 16.5063 15.0274 17.5981 15.5242C18.1415 15.7715 18.6457 16.0763 19.0295 16.4567C19.4166 16.8402 19.75 17.3746 19.75 18.0416C19.75 18.9206 19.182 19.5588 18.6294 19.9671C18.0555 20.391 17.2945 20.7272 16.4514 20.9907C14.7523 21.5216 12.4716 21.8332 10 21.8332C7.52836 21.8332 5.24766 21.5216 3.54861 20.9907C2.70554 20.7272 1.94446 20.391 1.37065 19.9671C0.818036 19.5588 0.25 18.9206 0.25 18.0416C0.25 17.3746 0.58342 16.8402 0.970478 16.4567C1.35431 16.0763 1.85854 15.7715 2.4019 15.5242C3.49374 15.0274 4.96491 14.664 6.61405 14.4553L6.68175 14.4468Z" fill="white"/>
</svg>
