<svg width="26" height="26" viewBox="0 0 26 26" fill="none" xmlns="http://www.w3.org/2000/svg">
<path fill-rule="evenodd" clip-rule="evenodd" d="M1.08301 7.58337C1.08301 5.78845 2.53808 4.33337 4.33301 4.33337H21.6663C23.4613 4.33337 24.9163 5.78845 24.9163 7.58337V18.4167C24.9163 20.2116 23.4613 21.6667 21.6663 21.6667H4.33301C2.53808 21.6667 1.08301 20.2116 1.08301 18.4167V7.58337ZM4.33301 6.50004C3.7347 6.50004 3.24967 6.98507 3.24967 7.58337V18.4167C3.24967 19.015 3.7347 19.5 4.33301 19.5H21.6663C22.2647 19.5 22.7497 19.015 22.7497 18.4167V7.58337C22.7497 6.98507 22.2647 6.50004 21.6663 6.50004H4.33301Z" fill="white"/>
<path fill-rule="evenodd" clip-rule="evenodd" d="M23.8332 6.96325L23.4968 7.28405C23.4612 7.31798 23.4234 7.34945 23.3835 7.37823L13.6335 14.4199C13.2549 14.6934 12.7436 14.6934 12.3649 14.4199L2.61493 7.37823C2.5547 7.33474 2.49911 7.28516 2.44903 7.23028L2.15625 6.90948L3.75662 5.44891L3.97408 5.68718L12.9992 12.2053L22.0551 5.66499L22.3381 5.39514L23.8332 6.96325Z" fill="white"/>
</svg>
