<svg width="26" height="26" viewBox="0 0 26 26" fill="none" xmlns="http://www.w3.org/2000/svg">
<path fill-rule="evenodd" clip-rule="evenodd" d="M4.82935 8.2178C4.76117 8.14962 4.65062 8.14962 4.58243 8.2178L3.07535 9.72488C2.16105 10.6392 1.9098 12.0247 2.44486 13.2019C4.43013 17.5695 7.93056 21.0699 12.2982 23.0552C13.4753 23.5902 14.8608 23.339 15.7751 22.4247L17.2822 20.9176C17.3504 20.8494 17.3504 20.7389 17.2822 20.6707L15.2549 18.6433C15.2017 18.5902 15.1205 18.577 15.0533 18.6106L13.9282 19.1732C12.5425 19.866 10.869 19.5944 9.77357 18.499L7.00106 15.7265C5.90561 14.631 5.63403 12.9575 6.32686 11.5718L6.88942 10.4467C6.92303 10.3795 6.90986 10.2983 6.85672 10.2452L4.82935 8.2178ZM3.05037 6.68574C3.96469 5.77142 5.44709 5.77142 6.36142 6.68574L8.38878 8.7131C9.10137 9.42569 9.27803 10.5143 8.82735 11.4157L8.26478 12.5408C7.98903 13.0923 8.09712 13.7584 8.53312 14.1944L11.3056 16.9669C11.7416 17.4029 12.4077 17.511 12.9592 17.2352L14.0844 16.6727C14.9857 16.222 16.0743 16.3987 16.7869 17.1113L18.8143 19.1386C19.7286 20.0529 19.7286 21.5353 18.8143 22.4497L17.3072 23.9567C15.7543 25.5097 13.4009 25.9364 11.4016 25.0276C6.55709 22.8256 2.67444 18.9429 0.472396 14.0984C-0.436394 12.0991 -0.00964895 9.74576 1.54329 8.19282L3.05037 6.68574Z" fill="white"/>
</svg>
