<svg width="20" height="20" viewBox="0 0 20 20" fill="none" xmlns="http://www.w3.org/2000/svg">
<path fill-rule="evenodd" clip-rule="evenodd" d="M8.33301 2.91667C5.34147 2.91667 2.91634 5.34179 2.91634 8.33333C2.91634 11.3249 5.34147 13.75 8.33301 13.75C11.3245 13.75 13.7497 11.3249 13.7497 8.33333C13.7497 5.34179 11.3245 2.91667 8.33301 2.91667ZM2.08301 8.33333C2.08301 4.88155 4.88123 2.08333 8.33301 2.08333C11.7848 2.08333 14.583 4.88155 14.583 8.33333C14.583 11.7851 11.7848 14.5833 8.33301 14.5833C4.88123 14.5833 2.08301 11.7851 2.08301 8.33333Z" fill="black"/>
<path fill-rule="evenodd" clip-rule="evenodd" d="M11.6663 8.33333C11.6663 6.49238 10.174 5 8.33301 5V4.16667C10.6342 4.16667 12.4997 6.03215 12.4997 8.33333H11.6663Z" fill="black"/>
<path fill-rule="evenodd" clip-rule="evenodd" d="M12.7943 12.2054L17.7943 17.2054L17.2051 17.7946L12.2051 12.7946L12.7943 12.2054Z" fill="black"/>
</svg>
