<svg width="18" height="19" viewBox="0 0 18 19" fill="none" xmlns="http://www.w3.org/2000/svg">
<path d="M1.6875 2.375H2.72676C3.10903 2.375 3.44353 2.64627 3.54203 3.03614L3.82942 4.17374M5.625 11.2812C4.38236 11.2812 3.375 12.3446 3.375 13.6562H15.1875M5.625 11.2812H14.0387C14.8795 9.45991 15.6133 7.57336 16.2313 5.63073C12.66 4.66803 8.91789 4.15625 5.0625 4.15625C4.65015 4.15625 4.23911 4.16211 3.82942 4.17374M5.625 11.2812L3.82942 4.17374M4.5 16.0312C4.5 16.3592 4.24816 16.625 3.9375 16.625C3.62684 16.625 3.375 16.3592 3.375 16.0312C3.375 15.7033 3.62684 15.4375 3.9375 15.4375C4.24816 15.4375 4.5 15.7033 4.5 16.0312ZM14.0625 16.0312C14.0625 16.3592 13.8107 16.625 13.5 16.625C13.1893 16.625 12.9375 16.3592 12.9375 16.0312C12.9375 15.7033 13.1893 15.4375 13.5 15.4375C13.8107 15.4375 14.0625 15.7033 14.0625 16.0312Z" stroke="#9CA3AF" stroke-width="1.5" stroke-linecap="round" stroke-linejoin="round"/>
</svg>
