<svg width="40" height="41" viewBox="0 0 40 41" fill="none" xmlns="http://www.w3.org/2000/svg">
<g clip-path="url(#clip0_2393_1962)">
<path fill-rule="evenodd" clip-rule="evenodd" d="M7.94125 34.0373C8.29314 36.5621 10.4027 38.4375 12.891 38.4375H27.109C29.5973 38.4375 31.7069 36.5621 32.0588 34.0373L34.9833 13.0541C35.0516 12.5638 34.909 12.0673 34.5924 11.6932C34.2759 11.3191 33.8165 11.1042 33.3333 11.1042H6.66668C6.18353 11.1042 5.72415 11.3191 5.40759 11.6932C5.09103 12.0673 4.94843 12.5638 5.01676 13.0541L7.94125 34.0373ZM12.891 35.0208C12.0616 35.0208 11.3584 34.3957 11.2411 33.5541L8.58836 14.5208H31.4117L28.7589 33.5541C28.6416 34.3957 27.9384 35.0208 27.109 35.0208H12.891Z" fill="#134B70"/>
<path fill-rule="evenodd" clip-rule="evenodd" d="M11.667 11.1042C11.667 6.38673 15.398 2.5625 20.0003 2.5625C24.6027 2.5625 28.3337 6.38673 28.3337 11.1042V12.8125C28.3337 13.756 27.5875 14.5208 26.667 14.5208H13.3337C12.4132 14.5208 11.667 13.756 11.667 12.8125V11.1042ZM20.0003 5.97917C17.2389 5.97917 15.0003 8.27371 15.0003 11.1042H25.0003C25.0003 8.27371 22.7617 5.97917 20.0003 5.97917Z" fill="#134B70"/>
<path fill-rule="evenodd" clip-rule="evenodd" d="M12.5 19.6458C12.5 23.8915 15.8579 27.3333 20 27.3333C24.1421 27.3333 27.5 23.8915 27.5 19.6458V18.7917H24.1667V19.6458C24.1667 22.0045 22.3012 23.9167 20 23.9167C17.6988 23.9167 15.8333 22.0045 15.8333 19.6458V18.7917H12.5V19.6458Z" fill="#134B70"/>
<circle cx="29.5" cy="31.5" r="8.5" fill="#C80036"/>
<path d="M29.7788 30.968C29.2428 30.968 28.8588 30.8 28.6268 30.464C28.3948 30.128 28.2268 29.664 28.1228 29.072L28.6268 28.7C28.6828 29.124 28.7748 29.432 28.9028 29.624C29.0388 29.816 29.2788 29.912 29.6228 29.912H31.4828V27.056H32.3708V29.54C32.3708 29.988 32.2548 30.34 32.0228 30.596C31.7908 30.844 31.4508 30.968 31.0028 30.968H29.7788ZM27.8468 31.172C27.8468 30.412 27.8108 29.744 27.7388 29.168C27.6748 28.584 27.5708 27.892 27.4268 27.092L28.3628 26.792C28.4988 27.68 28.5948 28.408 28.6508 28.976C28.7068 29.544 28.7348 30.224 28.7348 31.016V35.012H27.8468V31.172Z" fill="white"/>
</g>
<defs>
<clipPath id="clip0_2393_1962">
<rect width="40" height="41" fill="white"/>
</clipPath>
</defs>
</svg>
