<svg width="27" height="29" viewBox="0 0 27 29" fill="none" xmlns="http://www.w3.org/2000/svg">
<path fill-rule="evenodd" clip-rule="evenodd" d="M13.4993 6.96847C8.82867 6.96847 5.03223 10.9175 5.03223 15.8018C5.03223 20.6861 8.82867 24.6351 13.4993 24.6351C18.17 24.6351 21.9664 20.6861 21.9664 15.8018C21.9664 10.9175 18.17 6.96847 13.4993 6.96847ZM2.78223 15.8018C2.78223 9.64043 7.57485 4.63514 13.4993 4.63514C19.4238 4.63514 24.2164 9.64043 24.2164 15.8018C24.2164 21.9632 19.4238 26.9685 13.4993 26.9685C7.57485 26.9685 2.78223 21.9632 2.78223 15.8018Z" fill="#134B70"/>
<path fill-rule="evenodd" clip-rule="evenodd" d="M22.8273 8.84679L19.6299 5.51345L21.2251 3.8679L24.4224 7.20123L22.8273 8.84679Z" fill="#134B70"/>
<path fill-rule="evenodd" clip-rule="evenodd" d="M4.17275 8.84679L7.37012 5.51345L5.77493 3.8679L2.57757 7.20123L4.17275 8.84679Z" fill="#134B70"/>
<path fill-rule="evenodd" clip-rule="evenodd" d="M14.625 3.02402V5.8018H12.375V3.02402H14.625Z" fill="#134B70"/>
<path fill-rule="evenodd" clip-rule="evenodd" d="M15.6313 3.63513H11.3682V1.3018H15.6313V3.63513Z" fill="#134B70"/>
<path fill-rule="evenodd" clip-rule="evenodd" d="M12.375 16.3574V8.57958H14.625V16.3574H12.375Z" fill="#134B70"/>
</svg>
